<svg id="Component_5_1" data-name="Component 5 – 1" xmlns="http://www.w3.org/2000/svg" width="16" height="16" viewBox="0 0 16 16">
  <path id="cart-outline" d="M13.8,14.8a1.6,1.6,0,1,1-1.6,1.6,1.6,1.6,0,0,1,1.6-1.6M1,2H3.616l.752,1.6H16.2a.8.8,0,0,1,.8.8,1.012,1.012,0,0,1-.1.4L14.04,9.976a1.608,1.608,0,0,1-1.4.824H6.68l-.72,1.3-.024.1a.2.2,0,0,0,.2.2H15.4V14H5.8a1.6,1.6,0,0,1-1.6-1.6,1.63,1.63,0,0,1,.192-.768L5.48,9.672,2.6,3.6H1V2M5.8,14.8a1.6,1.6,0,1,1-1.6,1.6,1.6,1.6,0,0,1,1.6-1.6M13,9.2l2.224-4H5.112L7,9.2Z" transform="translate(-1 -2)" fill="#6e7780"/>
  <path id="cart" d="M13.8,14.8a1.6,1.6,0,1,0,1.6,1.6,1.594,1.594,0,0,0-1.6-1.6M1,2V3.6H2.6L5.48,9.672l-1.088,1.96A1.63,1.63,0,0,0,4.2,12.4,1.6,1.6,0,0,0,5.8,14h9.6V12.4H6.136a.2.2,0,0,1-.2-.2.171.171,0,0,1,.024-.1l.72-1.3h5.96a1.608,1.608,0,0,0,1.4-.824L16.9,4.8a1.012,1.012,0,0,0,.1-.4.8.8,0,0,0-.8-.8H4.368L3.616,2M5.8,14.8a1.6,1.6,0,1,0,1.6,1.6A1.594,1.594,0,0,0,5.8,14.8Z" transform="translate(-1 -2)" fill="#fa1229"/>
</svg>
