<svg id="Component_283_4" data-name="Component 283 – 4" xmlns="http://www.w3.org/2000/svg" width="18.334" height="13.334" viewBox="0 0 18.334 13.334">
  <path id="Subtraction_8" data-name="Subtraction 8" d="M14.146,13.335a2.476,2.476,0,0,1-1.781-.719,2.372,2.372,0,0,1-.74-1.76H6.771a2.372,2.372,0,0,1-.739,1.76,2.477,2.477,0,0,1-1.782.719,2.476,2.476,0,0,1-1.781-.719,2.372,2.372,0,0,1-.74-1.76H0v-9.1A1.692,1.692,0,0,1,.511.512,1.691,1.691,0,0,1,1.75,0H13.375V3.335h2.542l2.417,3.208v4.313H16.667a2.372,2.372,0,0,1-.74,1.76A2.476,2.476,0,0,1,14.146,13.335Zm0-3.292a.781.781,0,1,0,.542.229A.743.743,0,0,0,14.146,10.043Zm-9.9,0a.782.782,0,1,0,.542.229A.746.746,0,0,0,4.25,10.043Zm1-3.707v1h1.5v1h1v-1h.5a1,1,0,0,0,1-1v-1a1,1,0,0,0-1-1h-2v-1h3v-1H7.75v-1h-1v1h-.5a1,1,0,0,0-1,1v1a1,1,0,0,0,1,1h2v1Zm8.125-1.251V7.46h3.438L15.042,5.085Z" transform="translate(0 -0.001)" fill="#f34f59"/>
</svg>
