<svg xmlns="http://www.w3.org/2000/svg" width="15.166" height="15.166" viewBox="0 0 15.166 15.166">
  <path id="Subtraction_10" data-name="Subtraction 10" d="M7.582,15.166a7.379,7.379,0,0,1-2.938-.593A7.723,7.723,0,0,1,.592,10.521,7.379,7.379,0,0,1,0,7.583,7.355,7.355,0,0,1,.592,4.635,7.75,7.75,0,0,1,4.644.593,7.379,7.379,0,0,1,7.582,0,7.355,7.355,0,0,1,10.53.593a7.778,7.778,0,0,1,4.042,4.042,7.355,7.355,0,0,1,.593,2.948,7.379,7.379,0,0,1-.593,2.938,7.75,7.75,0,0,1-4.042,4.052A7.355,7.355,0,0,1,7.582,15.166ZM5,3.43v8.308H6.938V8.992H8.219A2.776,2.776,0,0,0,11,6.211,2.776,2.776,0,0,0,8.219,3.43ZM8.254,7.053H6.938V5.369H8.254a.842.842,0,0,1,0,1.685Z" transform="translate(0.001)" fill="#f34f59"/>
</svg>
